<svg version="1.1" xmlns="http://www.w3.org/2000/svg" viewBox="0 0 1193 745" width="3579" height="2235" filter="invert(93%) hue-rotate(180deg)">
  <!-- svg-source:excalidraw -->
  
  <defs>
    <style class="style-fonts">
      @font-face {
        font-family: "Virgil";
        src: url("https://excalidraw.com/Virgil.woff2");
      }
      @font-face {
        font-family: "Cascadia";
        src: url("https://excalidraw.com/Cascadia.woff2");
      }
      @font-face {
        font-family: "Assistant";
        src: url("https://excalidraw.com/Assistant-Regular.woff2");
      }
    </style>
    
  </defs>
  <rect x="0" y="0" width="1193" height="745" fill="#f5faff"></rect><g stroke-linecap="round" transform="translate(1033 268) rotate(0 75 20.5)"><path d="M0 0 C38.87 0, 77.74 0, 150 0 M0 0 C53.15 0, 106.3 0, 150 0 M150 0 C150 11.54, 150 23.08, 150 41 M150 0 C150 10.5, 150 21.01, 150 41 M150 41 C107.18 41, 64.36 41, 0 41 M150 41 C90.4 41, 30.8 41, 0 41 M0 41 C0 25.27, 0 9.54, 0 0 M0 41 C0 30.3, 0 19.59, 0 0" stroke="#1e1e1e" stroke-width="1" fill="none"></path></g><g transform="translate(1069.7300338745117 276) rotate(0 38.26996612548828 12.5)"><text x="38.26996612548828" y="17.52" font-family="Virgil, Segoe UI Emoji" font-size="20px" fill="#1e1e1e" text-anchor="middle" style="white-space: pre;" direction="ltr" dominant-baseline="alphabetic">objeto 1</text></g><g stroke-linecap="round" transform="translate(10 133) rotate(0 75 20.5)"><path d="M0 0 C56.4 0, 112.81 0, 150 0 M0 0 C49.36 0, 98.73 0, 150 0 M150 0 C150 11.88, 150 23.77, 150 41 M150 0 C150 8.39, 150 16.77, 150 41 M150 41 C109.93 41, 69.86 41, 0 41 M150 41 C107.24 41, 64.49 41, 0 41 M0 41 C0 32.31, 0 23.62, 0 0 M0 41 C0 26.45, 0 11.9, 0 0" stroke="#1e1e1e" stroke-width="1" fill="none"></path></g><g transform="translate(42.320037841796875 141) rotate(0 42.679962158203125 12.5)"><text x="42.679962158203125" y="17.52" font-family="Virgil, Segoe UI Emoji" font-size="20px" fill="#1e1e1e" text-anchor="middle" style="white-space: pre;" direction="ltr" dominant-baseline="alphabetic">objeto 2</text></g><g stroke-linecap="round" transform="translate(10 395) rotate(0 75 20.5)"><path d="M0 0 C56.54 0, 113.08 0, 150 0 M0 0 C39.4 0, 78.79 0, 150 0 M150 0 C150 14.32, 150 28.63, 150 41 M150 0 C150 11.83, 150 23.67, 150 41 M150 41 C118.33 41, 86.66 41, 0 41 M150 41 C101.18 41, 52.36 41, 0 41 M0 41 C0 31.29, 0 21.58, 0 0 M0 41 C0 25.87, 0 10.74, 0 0" stroke="#1e1e1e" stroke-width="1" fill="none"></path></g><g transform="translate(42.630035400390625 403) rotate(0 42.369964599609375 12.5)"><text x="42.369964599609375" y="17.52" font-family="Virgil, Segoe UI Emoji" font-size="20px" fill="#1e1e1e" text-anchor="middle" style="white-space: pre;" direction="ltr" dominant-baseline="alphabetic">objeto 3</text></g><g stroke-linecap="round" transform="translate(917 260) rotate(0 33 27.5)"><path d="M66 27.5 C66 29.09, 65.83 30.71, 65.5 32.28 C65.17 33.84, 64.66 35.41, 64.01 36.91 C63.36 38.4, 62.53 39.87, 61.58 41.25 C60.62 42.63, 59.51 43.96, 58.28 45.18 C57.05 46.4, 55.68 47.54, 54.21 48.57 C52.75 49.59, 51.15 50.52, 49.5 51.32 C47.85 52.11, 46.08 52.8, 44.29 53.34 C42.49 53.89, 40.61 54.31, 38.73 54.58 C36.85 54.86, 34.91 55, 33 55 C31.09 55, 29.15 54.86, 27.27 54.58 C25.39 54.31, 23.51 53.89, 21.71 53.34 C19.92 52.8, 18.15 52.11, 16.5 51.32 C14.85 50.52, 13.25 49.59, 11.79 48.57 C10.32 47.54, 8.95 46.4, 7.72 45.18 C6.49 43.96, 5.38 42.63, 4.42 41.25 C3.47 39.87, 2.64 38.4, 1.99 36.91 C1.34 35.41, 0.83 33.84, 0.5 32.28 C0.17 30.71, 0 29.09, 0 27.5 C0 25.91, 0.17 24.29, 0.5 22.72 C0.83 21.16, 1.34 19.59, 1.99 18.09 C2.64 16.6, 3.47 15.13, 4.42 13.75 C5.38 12.37, 6.49 11.04, 7.72 9.82 C8.95 8.6, 10.32 7.46, 11.79 6.43 C13.25 5.41, 14.85 4.48, 16.5 3.68 C18.15 2.89, 19.92 2.2, 21.71 1.66 C23.51 1.11, 25.39 0.69, 27.27 0.42 C29.15 0.14, 31.09 0, 33 0 C34.91 0, 36.85 0.14, 38.73 0.42 C40.61 0.69, 42.49 1.11, 44.29 1.66 C46.08 2.2, 47.85 2.89, 49.5 3.68 C51.15 4.48, 52.75 5.41, 54.21 6.43 C55.68 7.46, 57.05 8.6, 58.28 9.82 C59.51 11.04, 60.62 12.37, 61.58 13.75 C62.53 15.13, 63.36 16.6, 64.01 18.09 C64.66 19.59, 65.17 21.16, 65.5 22.72 C65.83 24.29, 65.92 26.7, 66 27.5 C66.08 28.3, 66.08 26.7, 66 27.5" stroke="#1e1e1e" stroke-width="1" fill="none"></path></g><g transform="translate(939.4754814088324 275.05456351736996) rotate(0 10.689994812011719 12.5)"><text x="10.689994812011719" y="17.52" font-family="Virgil, Segoe UI Emoji" font-size="20px" fill="#1e1e1e" text-anchor="middle" style="white-space: pre;" direction="ltr" dominant-baseline="alphabetic">{}</text></g><g stroke-linecap="round" transform="translate(237 130) rotate(0 33 27.5)"><path d="M66 27.5 C66 29.09, 65.83 30.71, 65.5 32.28 C65.17 33.84, 64.66 35.41, 64.01 36.91 C63.36 38.4, 62.53 39.87, 61.58 41.25 C60.62 42.63, 59.51 43.96, 58.28 45.18 C57.05 46.4, 55.68 47.54, 54.21 48.57 C52.75 49.59, 51.15 50.52, 49.5 51.32 C47.85 52.11, 46.08 52.8, 44.29 53.34 C42.49 53.89, 40.61 54.31, 38.73 54.58 C36.85 54.86, 34.91 55, 33 55 C31.09 55, 29.15 54.86, 27.27 54.58 C25.39 54.31, 23.51 53.89, 21.71 53.34 C19.92 52.8, 18.15 52.11, 16.5 51.32 C14.85 50.52, 13.25 49.59, 11.79 48.57 C10.32 47.54, 8.95 46.4, 7.72 45.18 C6.49 43.96, 5.38 42.63, 4.42 41.25 C3.47 39.87, 2.64 38.4, 1.99 36.91 C1.34 35.41, 0.83 33.84, 0.5 32.28 C0.17 30.71, 0 29.09, 0 27.5 C0 25.91, 0.17 24.29, 0.5 22.72 C0.83 21.16, 1.34 19.59, 1.99 18.09 C2.64 16.6, 3.47 15.13, 4.42 13.75 C5.38 12.37, 6.49 11.04, 7.72 9.82 C8.95 8.6, 10.32 7.46, 11.79 6.43 C13.25 5.41, 14.85 4.48, 16.5 3.68 C18.15 2.89, 19.92 2.2, 21.71 1.66 C23.51 1.11, 25.39 0.69, 27.27 0.42 C29.15 0.14, 31.09 0, 33 0 C34.91 0, 36.85 0.14, 38.73 0.42 C40.61 0.69, 42.49 1.11, 44.29 1.66 C46.08 2.2, 47.85 2.89, 49.5 3.68 C51.15 4.48, 52.75 5.41, 54.21 6.43 C55.68 7.46, 57.05 8.6, 58.28 9.82 C59.51 11.04, 60.62 12.37, 61.58 13.75 C62.53 15.13, 63.36 16.6, 64.01 18.09 C64.66 19.59, 65.17 21.16, 65.5 22.72 C65.83 24.29, 65.92 26.7, 66 27.5 C66.08 28.3, 66.08 26.7, 66 27.5" stroke="#1e1e1e" stroke-width="1" fill="none"></path></g><g transform="translate(259.47548140883214 145.05456351736996) rotate(0 10.689994812011719 12.5)"><text x="10.689994812011719" y="17.52" font-family="Virgil, Segoe UI Emoji" font-size="20px" fill="#1e1e1e" text-anchor="middle" style="white-space: pre;" direction="ltr" dominant-baseline="alphabetic">{}</text></g><g stroke-linecap="round" transform="translate(237 395) rotate(0 33 27.5)"><path d="M66 27.5 C66 29.09, 65.83 30.71, 65.5 32.28 C65.17 33.84, 64.66 35.41, 64.01 36.91 C63.36 38.4, 62.53 39.87, 61.58 41.25 C60.62 42.63, 59.51 43.96, 58.28 45.18 C57.05 46.4, 55.68 47.54, 54.21 48.57 C52.75 49.59, 51.15 50.52, 49.5 51.32 C47.85 52.11, 46.08 52.8, 44.29 53.34 C42.49 53.89, 40.61 54.31, 38.73 54.58 C36.85 54.86, 34.91 55, 33 55 C31.09 55, 29.15 54.86, 27.27 54.58 C25.39 54.31, 23.51 53.89, 21.71 53.34 C19.92 52.8, 18.15 52.11, 16.5 51.32 C14.85 50.52, 13.25 49.59, 11.79 48.57 C10.32 47.54, 8.95 46.4, 7.72 45.18 C6.49 43.96, 5.38 42.63, 4.42 41.25 C3.47 39.87, 2.64 38.4, 1.99 36.91 C1.34 35.41, 0.83 33.84, 0.5 32.28 C0.17 30.71, 0 29.09, 0 27.5 C0 25.91, 0.17 24.29, 0.5 22.72 C0.83 21.16, 1.34 19.59, 1.99 18.09 C2.64 16.6, 3.47 15.13, 4.42 13.75 C5.38 12.37, 6.49 11.04, 7.72 9.82 C8.95 8.6, 10.32 7.46, 11.79 6.43 C13.25 5.41, 14.85 4.48, 16.5 3.68 C18.15 2.89, 19.92 2.2, 21.71 1.66 C23.51 1.11, 25.39 0.69, 27.27 0.42 C29.15 0.14, 31.09 0, 33 0 C34.91 0, 36.85 0.14, 38.73 0.42 C40.61 0.69, 42.49 1.11, 44.29 1.66 C46.08 2.2, 47.85 2.89, 49.5 3.68 C51.15 4.48, 52.75 5.41, 54.21 6.43 C55.68 7.46, 57.05 8.6, 58.28 9.82 C59.51 11.04, 60.62 12.37, 61.58 13.75 C62.53 15.13, 63.36 16.6, 64.01 18.09 C64.66 19.59, 65.17 21.16, 65.5 22.72 C65.83 24.29, 65.92 26.7, 66 27.5 C66.08 28.3, 66.08 26.7, 66 27.5" stroke="#1e1e1e" stroke-width="1" fill="none"></path></g><g transform="translate(259.47548140883214 410.05456351736996) rotate(0 10.689994812011719 12.5)"><text x="10.689994812011719" y="17.52" font-family="Virgil, Segoe UI Emoji" font-size="20px" fill="#1e1e1e" text-anchor="middle" style="white-space: pre;" direction="ltr" dominant-baseline="alphabetic">{}</text></g><g mask="url(#mask-3Ku1kMU1ZRIe80So2TJ5H)" stroke-linecap="round"><g transform="translate(293 178) rotate(0 65 18.5)"><path d="M0 0 C32.94 9.38, 65.89 18.75, 130 37 M0 0 C35.4 10.07, 70.79 20.15, 130 37" stroke="#1e1e1e" stroke-width="1" fill="none"></path></g><g transform="translate(293 178) rotate(0 65 18.5)"><path d="M130 37 L115.19 39.38 L118.66 27.18 L130 37" stroke="none" stroke-width="0" fill="#1e1e1e" fill-rule="evenodd"></path><path d="M130 37 C126.25 37.6, 122.49 38.2, 115.19 39.38 M130 37 C125.97 37.65, 121.93 38.29, 115.19 39.38 M115.19 39.38 C116.03 36.41, 116.87 33.45, 118.66 27.18 M115.19 39.38 C116 36.53, 116.81 33.69, 118.66 27.18 M118.66 27.18 C121.75 29.85, 124.83 32.52, 130 37 M118.66 27.18 C121.51 29.64, 124.35 32.11, 130 37 M130 37 C130 37, 130 37, 130 37 M130 37 C130 37, 130 37, 130 37" stroke="#1e1e1e" stroke-width="1" fill="none"></path></g></g><mask id="mask-3Ku1kMU1ZRIe80So2TJ5H"><rect x="0" y="0" fill="#fff" width="523" height="315"></rect><rect x="352.92000579833984" y="184" fill="#000" width="10.159988403320312" height="25" opacity="1"></rect></mask><g transform="translate(352.92000579833984 184) rotate(0 5.079994201660156 12.5)"><text x="5.079994201660156" y="17.52" font-family="Virgil, Segoe UI Emoji" font-size="20px" fill="#1971c2" text-anchor="middle" style="white-space: pre;" direction="ltr" dominant-baseline="alphabetic">b</text></g><g mask="url(#mask-mmv2OH2qG9BXSglIaffx6)" stroke-linecap="round"><g transform="translate(302 402) rotate(0 64.5 -14.5)"><path d="M0 0 C35.03 -7.87, 70.06 -15.75, 129 -29 M0 0 C38.35 -8.62, 76.7 -17.24, 129 -29" stroke="#1e1e1e" stroke-width="1" fill="none"></path></g><g transform="translate(302 402) rotate(0 64.5 -14.5)"><path d="M129 -29 L117.13 -19.83 L114.35 -32.2 L129 -29" stroke="none" stroke-width="0" fill="#1e1e1e" fill-rule="evenodd"></path><path d="M129 -29 C125.78 -26.51, 122.55 -24.02, 117.13 -19.83 M129 -29 C125.47 -26.27, 121.94 -23.55, 117.13 -19.83 M117.13 -19.83 C116.23 -23.81, 115.34 -27.79, 114.35 -32.2 M117.13 -19.83 C116.3 -23.52, 115.47 -27.21, 114.35 -32.2 M114.35 -32.2 C117.76 -31.46, 121.18 -30.71, 129 -29 M114.35 -32.2 C118.83 -31.22, 123.31 -30.24, 129 -29 M129 -29 C129 -29, 129 -29, 129 -29 M129 -29 C129 -29, 129 -29, 129 -29" stroke="#1e1e1e" stroke-width="1" fill="none"></path></g></g><mask id="mask-mmv2OH2qG9BXSglIaffx6"><rect x="0" y="0" fill="#fff" width="531" height="531"></rect><rect x="359.8300018310547" y="375" fill="#000" width="13.339996337890625" height="25" opacity="1"></rect></mask><g transform="translate(359.8300018310547 375) rotate(0 6.6699981689453125 12.5)"><text x="6.6699981689453125" y="17.52" font-family="Virgil, Segoe UI Emoji" font-size="20px" fill="#1971c2" text-anchor="middle" style="white-space: pre;" direction="ltr" dominant-baseline="alphabetic">a</text></g><g stroke-linecap="round" transform="translate(432 346) rotate(0 73.5 23)"><path d="M11.5 0 C60.16 0, 108.83 0, 135.5 0 M11.5 0 C52.61 0, 93.72 0, 135.5 0 M135.5 0 C143.17 0, 147 3.83, 147 11.5 M135.5 0 C143.17 0, 147 3.83, 147 11.5 M147 11.5 C147 19.51, 147 27.51, 147 34.5 M147 11.5 C147 19.52, 147 27.53, 147 34.5 M147 34.5 C147 42.17, 143.17 46, 135.5 46 M147 34.5 C147 42.17, 143.17 46, 135.5 46 M135.5 46 C103.65 46, 71.79 46, 11.5 46 M135.5 46 C92.31 46, 49.12 46, 11.5 46 M11.5 46 C3.83 46, 0 42.17, 0 34.5 M11.5 46 C3.83 46, 0 42.17, 0 34.5 M0 34.5 C0 27.19, 0 19.89, 0 11.5 M0 34.5 C0 29.48, 0 24.46, 0 11.5 M0 11.5 C0 3.83, 3.83 0, 11.5 0 M0 11.5 C0 3.83, 3.83 0, 11.5 0" stroke="#2f9e44" stroke-width="1" fill="none"></path></g><g transform="translate(495.9100036621094 356.5) rotate(0 9.589996337890625 12.5)"><text x="9.589996337890625" y="17.52" font-family="Virgil, Segoe UI Emoji" font-size="20px" fill="#2f9e44" text-anchor="middle" style="white-space: pre;" direction="ltr" dominant-baseline="alphabetic">10</text></g><g stroke-linecap="round" transform="translate(427 193) rotate(0 73.5 23)"><path d="M11.5 0 C55.66 0, 99.82 0, 135.5 0 M11.5 0 C56.27 0, 101.04 0, 135.5 0 M135.5 0 C143.17 0, 147 3.83, 147 11.5 M135.5 0 C143.17 0, 147 3.83, 147 11.5 M147 11.5 C147 20.45, 147 29.4, 147 34.5 M147 11.5 C147 19.13, 147 26.76, 147 34.5 M147 34.5 C147 42.17, 143.17 46, 135.5 46 M147 34.5 C147 42.17, 143.17 46, 135.5 46 M135.5 46 C93.91 46, 52.31 46, 11.5 46 M135.5 46 C101.47 46, 67.45 46, 11.5 46 M11.5 46 C3.83 46, 0 42.17, 0 34.5 M11.5 46 C3.83 46, 0 42.17, 0 34.5 M0 34.5 C0 26.81, 0 19.13, 0 11.5 M0 34.5 C0 29.8, 0 25.11, 0 11.5 M0 11.5 C0 3.83, 3.83 0, 11.5 0 M0 11.5 C0 3.83, 3.83 0, 11.5 0" stroke="#2f9e44" stroke-width="1" fill="none"></path></g><g transform="translate(494.32000732421875 203.5) rotate(0 6.17999267578125 12.5)"><text x="6.17999267578125" y="17.52" font-family="Virgil, Segoe UI Emoji" font-size="20px" fill="#2f9e44" text-anchor="middle" style="white-space: pre;" direction="ltr" dominant-baseline="alphabetic">5</text></g><g mask="url(#mask-atDJIrDM5JUNIbwMeZ5wK)" stroke-linecap="round"><g transform="translate(941 317) rotate(0 -35.5 44)"><path d="M0 0 C-11.83 14.67, -59.17 73.33, -71 88" stroke="#f08c00" stroke-width="1.5" fill="none" stroke-dasharray="8 9"></path></g><g transform="translate(941 317) rotate(0 -35.5 44)"><path d="M-71 88 L-67.4 73.44 L-57.53 81.4 L-71 88" stroke="none" stroke-width="0" fill="#f08c00" fill-rule="evenodd"></path><path d="M-71 88 C-70.24 84.92, -69.47 81.84, -67.4 73.44 M-67.4 73.44 C-65.06 75.33, -62.72 77.22, -57.53 81.4 M-57.53 81.4 C-61.27 83.23, -65.01 85.06, -71 88 M-71 88 C-71 88, -71 88, -71 88" stroke="#f08c00" stroke-width="1.5" fill="none"></path></g></g><mask id="mask-atDJIrDM5JUNIbwMeZ5wK"><rect x="0" y="0" fill="#fff" width="1112" height="505"></rect><rect x="898.8300018310547" y="348.5" fill="#000" width="13.339996337890625" height="25" opacity="1"></rect></mask><g transform="translate(898.8300018310547 348.5) rotate(0 6.6699981689453125 12.5)"><text x="6.6699981689453125" y="17.52" font-family="Virgil, Segoe UI Emoji" font-size="20px" fill="#f08c00" text-anchor="middle" style="white-space: pre;" direction="ltr" dominant-baseline="alphabetic">a</text></g><g transform="translate(926 362) rotate(0 78.12992858886719 12.5)"><text x="0" y="17.52" font-family="Virgil, Segoe UI Emoji" font-size="20px" fill="#f08c00" text-anchor="start" style="white-space: pre;" direction="ltr" dominant-baseline="alphabetic">nueva propiedad</text></g><g stroke-linecap="round"><g transform="translate(1033 287) rotate(0 -25.5 0)"><path d="M0 0 C-8.5 0, -42.5 0, -51 0 M0 0 C-8.5 0, -42.5 0, -51 0" stroke="#1e1e1e" stroke-width="1" fill="none"></path></g><g transform="translate(1033 287) rotate(0 -25.5 0)"><path d="M-51 0 L-37.41 -6.34 L-37.41 6.34 L-51 0" stroke="none" stroke-width="0" fill="#1e1e1e" fill-rule="evenodd"></path><path d="M-51 0 C-48.22 -1.3, -45.44 -2.59, -37.41 -6.34 M-51 0 C-46.71 -2, -42.43 -4, -37.41 -6.34 M-37.41 -6.34 C-37.41 -3.4, -37.41 -0.47, -37.41 6.34 M-37.41 -6.34 C-37.41 -1.33, -37.41 3.68, -37.41 6.34 M-37.41 6.34 C-42.1 4.15, -46.8 1.96, -51 0 M-37.41 6.34 C-42.61 3.91, -47.82 1.48, -51 0 M-51 0 C-51 0, -51 0, -51 0 M-51 0 C-51 0, -51 0, -51 0" stroke="#1e1e1e" stroke-width="1" fill="none"></path></g></g><mask></mask><g stroke-linecap="round" transform="translate(784.5 418) rotate(0 73.5 23)"><path d="M11.5 0 C37.95 0, 64.4 0, 135.5 0 M11.5 0 C40.73 0, 69.96 0, 135.5 0 M135.5 0 C143.17 0, 147 3.83, 147 11.5 M135.5 0 C143.17 0, 147 3.83, 147 11.5 M147 11.5 C147 18.03, 147 24.56, 147 34.5 M147 11.5 C147 17.92, 147 24.34, 147 34.5 M147 34.5 C147 42.17, 143.17 46, 135.5 46 M147 34.5 C147 42.17, 143.17 46, 135.5 46 M135.5 46 C89.87 46, 44.25 46, 11.5 46 M135.5 46 C102.81 46, 70.11 46, 11.5 46 M11.5 46 C3.83 46, 0 42.17, 0 34.5 M11.5 46 C3.83 46, 0 42.17, 0 34.5 M0 34.5 C0 29.64, 0 24.78, 0 11.5 M0 34.5 C0 25.49, 0 16.49, 0 11.5 M0 11.5 C0 3.83, 3.83 0, 11.5 0 M0 11.5 C0 3.83, 3.83 0, 11.5 0" stroke="#2f9e44" stroke-width="1" fill="none"></path></g><g transform="translate(848.4100036621094 428.5) rotate(0 9.589996337890625 12.5)"><text x="9.589996337890625" y="17.52" font-family="Virgil, Segoe UI Emoji" font-size="20px" fill="#2f9e44" text-anchor="middle" style="white-space: pre;" direction="ltr" dominant-baseline="alphabetic">10</text></g><g stroke-linecap="round"><g transform="translate(383 411) rotate(0 198.12532887107216 42.01580497635314)"><path d="M0 0 C32.07 14.01, 131.58 77.51, 192.44 84.03 C253.3 90.56, 331.2 48.43, 365.17 39.15 C399.14 29.88, 391.07 30.17, 396.25 28.38" stroke="#1e1e1e" stroke-width="1.5" fill="none" stroke-dasharray="8 9"></path></g><g transform="translate(383 411) rotate(0 198.12532887107216 42.01580497635314)"><path d="M396.25 28.38 L387.21 40.34 L381.27 29.14 L396.25 28.38" stroke="none" stroke-width="0" fill="#1e1e1e" fill-rule="evenodd"></path><path d="M396.25 28.38 C393.62 31.85, 391 35.33, 387.21 40.34 M387.21 40.34 C385.08 36.33, 382.95 32.31, 381.27 29.14 M381.27 29.14 C387.12 28.84, 392.97 28.54, 396.25 28.38 M396.25 28.38 C396.25 28.38, 396.25 28.38, 396.25 28.38" stroke="#1e1e1e" stroke-width="1.5" fill="none"></path></g></g><mask></mask><g mask="url(#mask-o1PuAiAelhZnkJ4312B4J)" stroke-linecap="round"><g transform="translate(299.0371925022248 144.85347310197494) rotate(0 85.7314037488876 -38.89449703478812)"><path d="M0 0 C60.25 -27.33, 120.5 -54.67, 171.46 -77.79" stroke="#f08c00" stroke-width="1.5" fill="none" stroke-dasharray="8 9"></path></g><g transform="translate(299.0371925022248 144.85347310197494) rotate(0 85.7314037488876 -38.89449703478812)"><path d="M171.46 -77.79 L161.7 -66.4 L156.46 -77.95 L171.46 -77.79" stroke="none" stroke-width="0" fill="#f08c00" fill-rule="evenodd"></path><path d="M171.46 -77.79 C168.03 -73.79, 164.6 -69.78, 161.7 -66.4 M161.7 -66.4 C159.9 -70.38, 158.09 -74.35, 156.46 -77.95 M156.46 -77.95 C162.15 -77.89, 167.85 -77.83, 171.46 -77.79 M171.46 -77.79 C171.46 -77.79, 171.46 -77.79, 171.46 -77.79" stroke="#f08c00" stroke-width="1.5" fill="none"></path></g></g><mask id="mask-o1PuAiAelhZnkJ4312B4J"><rect x="0" y="0" fill="#fff" width="570.5" height="322.6424671715512"></rect><rect x="378.0985980821671" y="93.45897606718682" fill="#000" width="13.339996337890625" height="25" opacity="1"></rect></mask><g transform="translate(378.098598082167 93.45897606718677) rotate(0 6.6699981689453125 12.5)"><text x="6.6699981689453125" y="17.52" font-family="Virgil, Segoe UI Emoji" font-size="20px" fill="#f08c00" text-anchor="middle" style="white-space: pre;" direction="ltr" dominant-baseline="alphabetic">a</text></g><g transform="translate(234.8700714111328 53.5) rotate(0 78.12992858886719 12.5)"><text x="0" y="17.52" font-family="Virgil, Segoe UI Emoji" font-size="20px" fill="#f08c00" text-anchor="start" style="white-space: pre;" direction="ltr" dominant-baseline="alphabetic">nueva propiedad</text></g><g stroke-linecap="round" transform="translate(805.5 44) rotate(0 73.5 23)"><path d="M11.5 0 C58.23 0, 104.96 0, 135.5 0 M11.5 0 C55.08 0, 98.66 0, 135.5 0 M135.5 0 C143.17 0, 147 3.83, 147 11.5 M135.5 0 C143.17 0, 147 3.83, 147 11.5 M147 11.5 C147 18.86, 147 26.22, 147 34.5 M147 11.5 C147 17.98, 147 24.47, 147 34.5 M147 34.5 C147 42.17, 143.17 46, 135.5 46 M147 34.5 C147 42.17, 143.17 46, 135.5 46 M135.5 46 C100.66 46, 65.81 46, 11.5 46 M135.5 46 C108.27 46, 81.04 46, 11.5 46 M11.5 46 C3.83 46, 0 42.17, 0 34.5 M11.5 46 C3.83 46, 0 42.17, 0 34.5 M0 34.5 C0 26.03, 0 17.57, 0 11.5 M0 34.5 C0 25.47, 0 16.45, 0 11.5 M0 11.5 C0 3.83, 3.83 0, 11.5 0 M0 11.5 C0 3.83, 3.83 0, 11.5 0" stroke="#2f9e44" stroke-width="1" fill="none"></path></g><g transform="translate(870.1100082397461 54.5) rotate(0 8.889991760253906 12.5)"><text x="8.889991760253906" y="17.52" font-family="Virgil, Segoe UI Emoji" font-size="20px" fill="#2f9e44" text-anchor="middle" style="white-space: pre;" direction="ltr" dominant-baseline="alphabetic">15</text></g><g stroke-linecap="round" transform="translate(482 42) rotate(0 108.5 25)"><path d="M0 0 C67.33 0, 134.67 0, 217 0 M0 0 C69.4 0, 138.81 0, 217 0 M217 0 C217 17.34, 217 34.69, 217 50 M217 0 C217 12.87, 217 25.74, 217 50 M217 50 C169.48 50, 121.96 50, 0 50 M217 50 C151.42 50, 85.84 50, 0 50 M0 50 C0 37.94, 0 25.88, 0 0 M0 50 C0 32.03, 0 14.05, 0 0" stroke="#1e1e1e" stroke-width="1" fill="none"></path></g><g transform="translate(558.4800109863281 54.5) rotate(0 32.019989013671875 12.5)"><text x="32.019989013671875" y="17.52" font-family="Virgil, Segoe UI Emoji" font-size="20px" fill="#1e1e1e" text-anchor="middle" style="white-space: pre;" direction="ltr" dominant-baseline="alphabetic">10 + 5</text></g><g stroke-linecap="round"><g transform="translate(894 358) rotate(0 -158 -129.5)"><path d="M0 0 C-72.87 -59.72, -145.74 -119.45, -316 -259" stroke="#1e1e1e" stroke-width="1.5" fill="none" stroke-dasharray="8 9"></path></g><g transform="translate(894 358) rotate(0 -158 -129.5)"><path d="M-316 -259 L-301.47 -255.29 L-309.5 -245.48 L-316 -259" stroke="none" stroke-width="0" fill="#1e1e1e" fill-rule="evenodd"></path><path d="M-316 -259 C-312.65 -258.14, -309.3 -257.29, -301.47 -255.29 M-301.47 -255.29 C-303.08 -253.32, -304.68 -251.36, -309.5 -245.48 M-309.5 -245.48 C-311.03 -248.65, -312.55 -251.81, -316 -259 M-316 -259 C-316 -259, -316 -259, -316 -259" stroke="#1e1e1e" stroke-width="1.5" fill="none"></path></g></g><mask></mask><g stroke-linecap="round"><g transform="translate(705 65) rotate(0 48.5 -0.5)"><path d="M0 0 C35.99 -0.37, 71.98 -0.74, 97 -1 M0 0 C34.32 -0.35, 68.64 -0.71, 97 -1" stroke="#1e1e1e" stroke-width="2" fill="none"></path></g><g transform="translate(705 65) rotate(0 48.5 -0.5)"><path d="M97 -1 L83.47 5.48 L83.34 -7.2 L97 -1" stroke="none" stroke-width="0" fill="#1e1e1e" fill-rule="evenodd"></path><path d="M97 -1 C91.98 1.4, 86.96 3.81, 83.47 5.48 M97 -1 C92.21 1.29, 87.43 3.58, 83.47 5.48 M83.47 5.48 C83.44 2.45, 83.41 -0.58, 83.34 -7.2 M83.47 5.48 C83.44 2.42, 83.41 -0.64, 83.34 -7.2 M83.34 -7.2 C87.19 -5.45, 91.05 -3.7, 97 -1 M83.34 -7.2 C86.54 -5.75, 89.74 -4.29, 97 -1 M97 -1 C97 -1, 97 -1, 97 -1 M97 -1 C97 -1, 97 -1, 97 -1" stroke="#1e1e1e" stroke-width="2" fill="none"></path></g></g><mask></mask><g transform="translate(560 10) rotate(0 29.099990844726562 12.5)"><text x="0" y="17.52" font-family="Virgil, Segoe UI Emoji" font-size="20px" fill="#e03131" text-anchor="start" style="white-space: pre;" direction="ltr" dominant-baseline="alphabetic">a + 5</text></g><g stroke-linecap="round"><g transform="translate(161 161.10040820875685) rotate(0 34.43789565435756 -0.017135428298871602)"><path d="M0 0 C14.82 -0.01, 29.64 -0.01, 68.88 -0.03 M0 0 C17.09 -0.01, 34.18 -0.02, 68.88 -0.03" stroke="#1e1e1e" stroke-width="2" fill="none"></path></g><g transform="translate(161 161.10040820875685) rotate(0 34.43789565435756 -0.017135428298871602)"><path d="M68.88 -0.03 L55.28 6.31 L55.28 -6.37 L68.88 -0.03" stroke="none" stroke-width="0" fill="#1e1e1e" fill-rule="evenodd"></path><path d="M68.88 -0.03 C65.95 1.33, 63.03 2.7, 55.28 6.31 M68.88 -0.03 C65.5 1.54, 62.13 3.11, 55.28 6.31 M55.28 6.31 C55.28 1.4, 55.28 -3.51, 55.28 -6.37 M55.28 6.31 C55.28 1.66, 55.28 -2.98, 55.28 -6.37 M55.28 -6.37 C58.41 -4.91, 61.54 -3.45, 68.88 -0.03 M55.28 -6.37 C59.08 -4.6, 62.88 -2.83, 68.88 -0.03 M68.88 -0.03 C68.88 -0.03, 68.88 -0.03, 68.88 -0.03 M68.88 -0.03 C68.88 -0.03, 68.88 -0.03, 68.88 -0.03" stroke="#1e1e1e" stroke-width="2" fill="none"></path></g></g><mask></mask><g stroke-linecap="round"><g transform="translate(163 417.85892225952955) rotate(0 36.654067569096526 0.4063940185533852)"><path d="M0 0 C19.21 0.21, 38.43 0.43, 73.31 0.81 M0 0 C17.4 0.19, 34.8 0.39, 73.31 0.81" stroke="#1e1e1e" stroke-width="2" fill="none"></path></g><g transform="translate(163 417.85892225952955) rotate(0 36.654067569096526 0.4063940185533852)"><path d="M73.31 0.81 L59.64 7 L59.78 -5.68 L73.31 0.81" stroke="none" stroke-width="0" fill="#1e1e1e" fill-rule="evenodd"></path><path d="M73.31 0.81 C69.73 2.43, 66.15 4.06, 59.64 7 M73.31 0.81 C70.07 2.28, 66.82 3.75, 59.64 7 M59.64 7 C59.7 2.15, 59.75 -2.69, 59.78 -5.68 M59.64 7 C59.7 2.05, 59.75 -2.9, 59.78 -5.68 M59.78 -5.68 C64.55 -3.39, 69.31 -1.11, 73.31 0.81 M59.78 -5.68 C62.65 -4.3, 65.51 -2.93, 73.31 0.81 M73.31 0.81 C73.31 0.81, 73.31 0.81, 73.31 0.81 M73.31 0.81 C73.31 0.81, 73.31 0.81, 73.31 0.81" stroke="#1e1e1e" stroke-width="2" fill="none"></path></g></g><mask></mask><g mask="url(#mask-bx3tWO59TyXl5IHWGI4dY)" stroke-linecap="round"><g transform="translate(287 446.5) rotate(0 60 50.5)"><path d="M0 0 C29.01 24.42, 58.02 48.83, 120 101 M0 0 C27.63 23.26, 55.26 46.51, 120 101" stroke="#1e1e1e" stroke-width="1" fill="none"></path></g><g transform="translate(287 446.5) rotate(0 60 50.5)"><path d="M120 101 L105.52 97.1 L113.68 87.4 L120 101" stroke="none" stroke-width="0" fill="#1e1e1e" fill-rule="evenodd"></path><path d="M120 101 C116.5 100.06, 113 99.11, 105.52 97.1 M120 101 C116.67 100.1, 113.33 99.2, 105.52 97.1 M105.52 97.1 C107.75 94.44, 109.99 91.78, 113.68 87.4 M105.52 97.1 C107.24 95.05, 108.96 93.01, 113.68 87.4 M113.68 87.4 C116.19 92.8, 118.7 98.2, 120 101 M113.68 87.4 C115.49 91.29, 117.3 95.18, 120 101 M120 101 C120 101, 120 101, 120 101 M120 101 C120 101, 120 101, 120 101" stroke="#1e1e1e" stroke-width="1" fill="none"></path></g></g><mask id="mask-bx3tWO59TyXl5IHWGI4dY"><rect x="0" y="0" fill="#fff" width="507" height="647.5"></rect><rect x="341.92000579833984" y="484.5" fill="#000" width="10.159988403320312" height="25" opacity="1"></rect></mask><g transform="translate(341.92000579833984 484.5) rotate(0 5.079994201660156 12.5)"><text x="5.079994201660156" y="17.52" font-family="Virgil, Segoe UI Emoji" font-size="20px" fill="#1971c2" text-anchor="middle" style="white-space: pre;" direction="ltr" dominant-baseline="alphabetic">b</text></g><g stroke-linecap="round" transform="translate(415.5 528) rotate(0 73.5 23)"><path d="M11.5 0 C56.04 0, 100.58 0, 135.5 0 M11.5 0 C60.84 0, 110.17 0, 135.5 0 M135.5 0 C143.17 0, 147 3.83, 147 11.5 M135.5 0 C143.17 0, 147 3.83, 147 11.5 M147 11.5 C147 18.44, 147 25.38, 147 34.5 M147 11.5 C147 20.21, 147 28.93, 147 34.5 M147 34.5 C147 42.17, 143.17 46, 135.5 46 M147 34.5 C147 42.17, 143.17 46, 135.5 46 M135.5 46 C102.13 46, 68.76 46, 11.5 46 M135.5 46 C92.48 46, 49.47 46, 11.5 46 M11.5 46 C3.83 46, 0 42.17, 0 34.5 M11.5 46 C3.83 46, 0 42.17, 0 34.5 M0 34.5 C0 29.13, 0 23.77, 0 11.5 M0 34.5 C0 28.39, 0 22.27, 0 11.5 M0 11.5 C0 3.83, 3.83 0, 11.5 0 M0 11.5 C0 3.83, 3.83 0, 11.5 0" stroke="#e03131" stroke-width="1" fill="none"></path></g><g transform="translate(444.61004638671875 538.5) rotate(0 44.38995361328125 12.5)"><text x="44.38995361328125" y="17.52" font-family="Virgil, Segoe UI Emoji" font-size="20px" fill="#e03131" text-anchor="middle" style="white-space: pre;" direction="ltr" dominant-baseline="alphabetic">undefined</text></g><g transform="translate(423 585) rotate(0 69.52989959716797 75)"><text x="69.52989959716797" y="17.52" font-family="Virgil, Segoe UI Emoji" font-size="20px" fill="#e03131" text-anchor="middle" style="white-space: pre;" direction="ltr" dominant-baseline="alphabetic">no existe </text><text x="69.52989959716797" y="42.519999999999996" font-family="Virgil, Segoe UI Emoji" font-size="20px" fill="#e03131" text-anchor="middle" style="white-space: pre;" direction="ltr" dominant-baseline="alphabetic">propiedad b</text><text x="69.52989959716797" y="67.52" font-family="Virgil, Segoe UI Emoji" font-size="20px" fill="#e03131" text-anchor="middle" style="white-space: pre;" direction="ltr" dominant-baseline="alphabetic">del objeto 1</text><text x="69.52989959716797" y="92.52" font-family="Virgil, Segoe UI Emoji" font-size="20px" fill="#e03131" text-anchor="middle" style="white-space: pre;" direction="ltr" dominant-baseline="alphabetic">en el momento</text><text x="69.52989959716797" y="117.52" font-family="Virgil, Segoe UI Emoji" font-size="20px" fill="#e03131" text-anchor="middle" style="white-space: pre;" direction="ltr" dominant-baseline="alphabetic">que se busca</text><text x="69.52989959716797" y="142.52" font-family="Virgil, Segoe UI Emoji" font-size="20px" fill="#e03131" text-anchor="middle" style="white-space: pre;" direction="ltr" dominant-baseline="alphabetic">asignar</text></g><g mask="url(#mask-2tw6GD_OfdYBcu498shPM)" stroke-linecap="round"><g transform="translate(936.6251919561671 261.2977446793122) rotate(0 -40.062972208900874 -39.148872339656094)"><path d="M0 0 C-13.35 -13.05, -66.77 -65.25, -80.13 -78.3" stroke="#f08c00" stroke-width="1.5" fill="none" stroke-dasharray="8 9"></path></g><g transform="translate(936.6251919561671 261.2977446793122) rotate(0 -40.062972208900874 -39.148872339656094)"><path d="M-80.13 -78.3 L-65.97 -73.33 L-74.83 -64.26 L-80.13 -78.3" stroke="none" stroke-width="0" fill="#f08c00" fill-rule="evenodd"></path><path d="M-80.13 -78.3 C-76.04 -76.86, -71.96 -75.43, -65.97 -73.33 M-65.97 -73.33 C-69.15 -70.08, -72.33 -66.83, -74.83 -64.26 M-74.83 -64.26 C-76.24 -67.98, -77.64 -71.7, -80.13 -78.3 M-80.13 -78.3 C-80.13 -78.3, -80.13 -78.3, -80.13 -78.3" stroke="#f08c00" stroke-width="1.5" fill="none"></path></g></g><mask id="mask-2tw6GD_OfdYBcu498shPM"><rect x="0" y="0" fill="#fff" width="1116.7511363739688" height="439.5954893586244"></rect><rect x="891.4822255456058" y="209.64887233965607" fill="#000" width="10.159988403320312" height="25" opacity="1"></rect></mask><g transform="translate(891.4822255456061 209.64887233965612) rotate(0 5.079994201660156 12.499999999999972)"><text x="5.079994201660156" y="17.52" font-family="Virgil, Segoe UI Emoji" font-size="20px" fill="#f08c00" text-anchor="middle" style="white-space: pre;" direction="ltr" dominant-baseline="alphabetic">b</text></g><g stroke-linecap="round" transform="translate(758.5 133) rotate(0 73.5 23)"><path d="M11.5 0 C36.78 0, 62.06 0, 135.5 0 M11.5 0 C61.02 0, 110.54 0, 135.5 0 M135.5 0 C143.17 0, 147 3.83, 147 11.5 M135.5 0 C143.17 0, 147 3.83, 147 11.5 M147 11.5 C147 18.24, 147 24.99, 147 34.5 M147 11.5 C147 17.55, 147 23.6, 147 34.5 M147 34.5 C147 42.17, 143.17 46, 135.5 46 M147 34.5 C147 42.17, 143.17 46, 135.5 46 M135.5 46 C95.57 46, 55.64 46, 11.5 46 M135.5 46 C94.86 46, 54.22 46, 11.5 46 M11.5 46 C3.83 46, 0 42.17, 0 34.5 M11.5 46 C3.83 46, 0 42.17, 0 34.5 M0 34.5 C0 26.59, 0 18.67, 0 11.5 M0 34.5 C0 28.87, 0 23.25, 0 11.5 M0 11.5 C0 3.83, 3.83 0, 11.5 0 M0 11.5 C0 3.83, 3.83 0, 11.5 0" stroke="#2f9e44" stroke-width="1" fill="none"></path></g><g transform="translate(822.4100036621094 143.5) rotate(0 9.589996337890625 12.5)"><text x="9.589996337890625" y="17.52" font-family="Virgil, Segoe UI Emoji" font-size="20px" fill="#2f9e44" text-anchor="middle" style="white-space: pre;" direction="ltr" dominant-baseline="alphabetic">10</text></g><g transform="translate(922.8700714111328 196.5) rotate(0 78.12992858886719 12.5)"><text x="0" y="17.52" font-family="Virgil, Segoe UI Emoji" font-size="20px" fill="#f08c00" text-anchor="start" style="white-space: pre;" direction="ltr" dominant-baseline="alphabetic">nueva propiedad</text></g></svg>